<?xml version="1.0" encoding="UTF-8"?>
<!-- Generator: Adobe Illustrator 25.4.1, SVG Export Plug-In . SVG Version: 6.00 Build 0)  -->
<svg xmlns="http://www.w3.org/2000/svg" xmlns:xlink="http://www.w3.org/1999/xlink" version="1.1" id="Capa_1" x="0px" y="0px" viewBox="0 0 512 512" style="enable-background:new 0 0 512 512;" xml:space="preserve" width="512" height="512">
<g>
	<g>
		<g>
			<path style="fill:#29AAF9;" d="M331.432,143.666c-2.13-1.469-4.456-2.601-6.938-3.292c-4.365-1.207-9.63-0.929-14.057-0.586     c-1.635-19.971-9.262-41.384-30.613-46.308c-19.707-4.549-36.912-2.764-56.297,7.493c-3.682-12.959-7.57-26.075-18.163-35.198     c-10.01-8.62-23.063-11.429-36.052-11.676c-6.394-0.122-18.989,1.647-25.578,5.716c-12.535,7.742-20.545,19.786-25.114,30.169     C94.512,70.4,55.844,85.8,46.804,110.656c-3.012,7.532-3.513,10.967-3.513,10.967s-15.068,0.752-21.094,3.014     c-10.545,4.515-20.34,14.31-21.845,25.61c-3.766,30.884,23.352,45.197,49.717,38.419c9.794-3.014,13.808-3.661,13.813-3.659     c11.989,4.795,22.13,12.06,35.004,14.75c22.57,4.712,46.568-0.876,65.933-12.996c2.526-1.576,9.544-7.133,9.544-7.133     s13.406,17.767,22.096,23.581c19.859,13.298,57.406,12.424,73.289-8.128c4.134-5.35,5.806-7.943,5.806-7.943     c0.219-0.343,14.024,4.926,15.268,5.318c15.986,5.004,38.842,6.209,49.848-9.544C349.17,170.748,343.379,151.889,331.432,143.666     z"/>
		</g>
		<g>
			<path style="fill:#29AAF9;" d="M489.266,294.875c-1.472-1.015-3.08-1.795-4.792-2.272c-3.017-0.832-6.65-0.642-9.707-0.409     c-1.131-13.787-6.397-28.573-21.141-31.974c-13.607-3.143-25.488-1.91-38.874,5.175c-2.546-8.953-5.228-18.01-12.544-24.306     c-6.914-5.956-16.148-8.092-25.098-7.479c-4.582,0.314-10.118,0.919-14.418,2.613c-5.144,2.024-9.596,4.99-13.324,9.082     c-0.758,0.832-8.882,11.59-7.059,12.502l-2.081-1.044c-16.645-13.524-40.054-2.08-46.296,15.086     c-2.08,5.201-3.641,7.802-3.641,7.802s-10.404,0.521-14.566,2.08c-7.283,3.124-14.046,9.885-15.085,17.691     c-2.602,21.328,16.126,31.208,34.332,26.527c6.762-2.08,9.535-2.528,9.538-2.525c8.281,3.309,15.283,8.328,24.171,10.184     c15.586,3.253,32.157-0.603,45.531-8.975c1.743-1.09,6.588-4.927,6.588-4.927s9.259,12.274,15.26,16.285     c13.715,9.184,39.64,8.583,50.611-5.613c2.852-3.69,4.007-5.483,4.007-5.483c0.152-0.238,9.685,3.403,10.544,3.671     c11.041,3.457,26.823,4.289,34.422-6.593C501.514,313.575,497.517,300.555,489.266,294.875z"/>
		</g>
		<g>
			<path style="fill:#7BEBE1;" d="M124.962,120.231c-5.808,0-5.808,9.013,0,9.013C130.774,129.245,130.774,120.231,124.962,120.231z     "/>
			<path style="fill:#7BEBE1;" d="M87.062,153.069c-5.813,0-5.813,9.009,0,9.009C92.87,162.078,92.87,153.069,87.062,153.069z"/>
			<path style="fill:#7BEBE1;" d="M74.898,111.558c-5.812,0-5.812,9.009,0,9.009C80.707,120.567,80.707,111.558,74.898,111.558z"/>
			<path style="fill:#7BEBE1;" d="M35.834,148.566c-5.809,0-5.809,9.009,0,9.009C41.641,157.575,41.641,148.566,35.834,148.566z"/>
			<path style="fill:#7BEBE1;" d="M160.763,104.912c-5.812,0-5.812,9.013,0,9.013C166.574,113.925,166.574,104.912,160.763,104.912z     "/>
			<path style="fill:#7BEBE1;" d="M150.53,146.758c-5.808,0-5.808,9.011,0,9.011C156.341,155.769,156.341,146.758,150.53,146.758z"/>
			<path style="fill:#7BEBE1;" d="M120.607,170.7c-5.812,0-5.812,9.013,0,9.013C126.416,179.713,126.416,170.7,120.607,170.7z"/>
			<path style="fill:#7BEBE1;" d="M190.211,132.729c-5.811,0-5.811,9.013,0,9.013C196.022,141.742,196.022,132.729,190.211,132.729z     "/>
			<path style="fill:#7BEBE1;" d="M176.713,71.663c-5.812,0-5.812,9.011,0,9.011C182.52,80.674,182.52,71.663,176.713,71.663z"/>
			<path style="fill:#7BEBE1;" d="M243.081,132.729c-5.812,0-5.812,9.013,0,9.013C248.889,141.742,248.889,132.729,243.081,132.729z     "/>
			<path style="fill:#7BEBE1;" d="M268.271,107.053c-5.812,0-5.812,9.011,0,9.011C274.082,116.064,274.082,107.053,268.271,107.053z     "/>
			<path style="fill:#7BEBE1;" d="M292.363,153.069c-5.811,0-5.811,9.009,0,9.009C298.175,162.078,298.175,153.069,292.363,153.069z     "/>
			<path style="fill:#7BEBE1;" d="M407.751,310.739c-5.811,0-5.811,9.009,0,9.009C413.561,319.747,413.561,310.739,407.751,310.739z     "/>
			<path style="fill:#7BEBE1;" d="M451.196,293.505c-5.812,0-5.812,9.011,0,9.011C457.008,302.516,457.008,293.505,451.196,293.505z     "/>
			<path style="fill:#7BEBE1;" d="M433.772,272.118c-5.811,0-5.811,9.009,0,9.009S439.583,272.118,433.772,272.118z"/>
			<path style="fill:#7BEBE1;" d="M394.686,284.494c-5.811,0-5.811,9.011,0,9.011C400.496,293.505,400.496,284.494,394.686,284.494z     "/>
			<path style="fill:#7BEBE1;" d="M475.486,307.737c-5.811,0-5.811,9.009,0,9.009C481.297,316.746,481.297,307.737,475.486,307.737z     "/>
			<path style="fill:#7BEBE1;" d="M358.563,307.737c-5.812,0-5.812,9.009,0,9.009C364.375,316.746,364.375,307.737,358.563,307.737z     "/>
		</g>
	</g>
	<path style="fill:#FFA0A8;" d="M495.645,90.626c-12.55-15.821-31.126-24.771-49.452-33.935   c-12.614-6.306-20.722-29.731-42.345-27.629c-21.626,2.102-16.822,12.916-38.744,13.811c-5.929,0.248-12.05,1.72-15.876,6.571   c-4.018,5.089-4.743,14.667,1.81,17.981c4.725,2.389,12.117,2.866,17.329,2.703c1.499-0.046,3.053-0.107,4.544-0.219   c0,0-27.632,17.117-14.716,21.321c17.753,5.78,49.556-3.301,49.556-3.301c76.886-1.8,69.076,49.556,69.076,53.332   c0,3.773-11.412,77.314-88.3,80.399c-76.885,3.095-90.1-67.96-174.197-62.552c-45.401,2.919-88.657,32.485-112.01,70.906   c-6.55,10.777-12.688,21.963-17.043,33.826c-3.873,10.541-5.453,21.949-10.773,31.94c-7.909,14.847-20.893,25.875-32.123,38.107   c-12.204,13.295-21.705,28.055-25.672,45.739c-3.641,16.212,2.812,29.281,15.064,39.256c15.392,12.531,34.097,13.991,52.964,15.327   c8.541,0.603,33.106-1.321,36.177,9.559c3.689,13.07-28.37,21.463-36.328,24.689c-3.721,1.507-7.115,5.964-4.817,9.627   c2.941,4.676,12.653,4.953,17.35,4.987c15.69,0.097,31.157-6.345,43.337-16.039c12.416-9.882,28.903-30.572,8.702-42.118   c-15.497-8.858-36.041-8.469-53.16-12.018c-11.982-2.486-24.008-5.172-35.124-10.415c-11.859-5.588-14.453-21.557-6.255-30.955   c7.99-9.157,19.467-18.426,30.247-23.929c13.57-6.931,30.521-9.408,45.449-11.836c1.606-0.263,17.071-0.723,17.191-1.102   c0,0-12.466,29.885-12.906,49.255c-0.439,19.372,27.471,15.764,32.877,14.414c5.406-1.348,15.619-9.159,10.212-18.701   c-4.423-7.809-6.082-16.966-5.082-25.844c0.154-1.377,2.719-15.56,3.392-15.259c7.095,3.153,22.637,5.14,22.637,5.14   c4.43,13.368-0.451,22.902,0,35.962c0.262,7.573,4.615,9.726,11.479,10.463c6.699,0.718,20.776,0.788,23.369-6.678   c1.963-5.654-4.915-13.269-5.789-19.022c-0.716-4.695,0-17.195,0-17.195c4.954,0.674,9.055-0.744,9.055-0.744   s-1.848,15.611,1.532,22.895c3.378,7.281,4.237,32.283,4.503,34.646c0.268,2.365,1.351,21.593,28.384,18.667   c6.539-0.71,15.275-2.202,17.994-9.067c3.063-7.744-3.684-11.072-8.007-15.969c-4.502-5.101-5.2-12.458-4.805-18.966   c1.201-19.82-0.647-33.393-0.647-33.393c6.908-0.749,9.589-1.533,9.589-1.533c4.852,11.332,5.022,8.795,11.063,20.209   c2.822,5.338,3.965,12.417,3.819,18.382c-0.175,7.033-3.755,15.696,2.944,20.966c8.111,6.369,26.553,7.651,35.122,1.881   c6.566-4.423,11.174-17.122,1.33-21.109c-12.615-5.104-11.713-11.41-13.215-37.541c-0.389-6.775-0.587-13.704,0.277-20.455   c1.147-8.977,7.955-14.92,14.581-20.192c8.089-6.439,16.402-12.456,25.525-17.358c5.166-2.778,10.466-5.43,15.842-7.778   c16.602-7.247,34.411-11.612,50.468-20.08c36.389-19.18,65.219-53.716,75.603-93.66c5.649-21.73,4.411-44.849-5.77-65.041   C500.798,97.803,498.362,94.054,495.645,90.626z"/>
	<path style="fill:#074781;" d="M407.751,49.785c0,3.815-2.926,6.907-6.532,6.907c-3.608,0-6.533-3.092-6.533-6.907   c0-3.817,2.925-6.912,6.533-6.912C404.826,42.873,407.751,45.967,407.751,49.785z"/>
	<path style="fill:#FFFFFF;" d="M441.948,236.825c19.948-5.714,31.339-24.936,44.149-39.643   C480.09,215.894,464.186,238.753,441.948,236.825z"/>
	<path style="fill:#FFFFFF;" d="M406.596,36.373c8.79-4.449,20.642,2.858,22.527,12.013   C421.653,44.58,414.378,39.587,406.596,36.373z"/>
	<path style="fill:#FFFFFF;" d="M38.081,357.809c-4.616,12.942-14.374,27.836-9.462,41.9   C15.834,388.649,26.882,365.943,38.081,357.809z"/>
	<g>
		<path style="fill:#F96081;" d="M455.809,97.487c24.918,14.631,21.018,41.102,21.018,43.773c0,3.586-10.296,70.045-77.136,79.404    c13.55,2.542,30.151-0.642,39.678-5.406c18.922-9.009,33.562-28.831,40.771-47.754    C490.461,137.227,480.679,108.001,455.809,97.487z"/>
	</g>
	<path style="fill:#F96081;" d="M327.69,321.75c1.073-2.966,2.784-5.576,4.841-7.943c-13.743,11.743-42.71,26.7-50.212,30.493   c1.902-0.331,2.975-0.569,2.975-0.569c0.143,0.333,0.281,0.654,0.417,0.963C305.668,342.012,319.584,330.69,327.69,321.75z"/>
	<path style="fill:#F96081;" d="M266.379,315.244c0,0,10.451,29.958,10.136,55.188C276.515,370.433,283.95,335.517,266.379,315.244z   "/>
	<path style="fill:#F96081;" d="M190.451,342.365c4.554,0.832,8.188,1.299,8.188,1.299c0.414,1.248,0.748,2.462,1.01,3.654   c8.937,2.684,20.24,2.129,27.979,1.231c0.04-0.844,0.072-1.355,0.072-1.355"/>
	<path style="fill:#F96081;" d="M173.836,345.825c0,0,4.604-32.135,11.745-43.241C185.582,302.584,184.205,328.817,173.836,345.825z   "/>
	<g>
		<path style="fill-rule:evenodd;clip-rule:evenodd;fill:#F96081;" d="M368.367,70.128c1.499-0.046,3.053-0.107,4.544-0.219    c0,0-4.392,2.722-8.855,6.26c2.222-0.674,4.449-1.433,6.721-2.255c6.45-2.343,15.207-5.861,18.436-12.427    c-8.399,3.637-17.489,7.958-26.842,8.525C364.496,70.157,366.561,70.184,368.367,70.128z"/>
	</g>
	<g>
		<path style="fill:#F5D155;" d="M35.477,284.182c-0.847-0.815-2.541-12.274-4.079-12.186c-1.545,0.092-2.885,11.458-3.604,12.208    c-1.446,1.498-12.01,2.569-11.925,4.021c0.086,1.455,10.465,2.141,11.928,3.559c0.817,0.793,2.539,12.286,4.079,12.196    c1.541-0.095,2.856-11.424,3.606-12.2c1.394-1.45,12.042-2.569,11.956-4.031C47.352,286.289,36.885,285.552,35.477,284.182z"/>
		<path style="fill:#F5D155;" d="M383.236,137.937c-0.844-0.82-2.537-12.276-4.075-12.186c-1.547,0.088-2.887,11.456-3.605,12.208    c-1.445,1.499-12.011,2.567-11.926,4.019c0.086,1.455,10.465,2.143,11.929,3.559c0.82,0.795,2.54,12.283,4.077,12.196    c1.541-0.095,2.859-11.424,3.608-12.205c1.39-1.445,12.04-2.567,11.956-4.026C395.111,140.041,384.648,139.307,383.236,137.937z"/>
		<path style="fill:#7BEBE1;" d="M65.111,232.6c-0.997-0.966-3.001-14.514-4.817-14.407c-1.827,0.107-3.413,13.546-4.263,14.431    c-1.708,1.776-14.197,3.034-14.096,4.756c0.103,1.715,12.372,2.528,14.102,4.206c0.967,0.937,3.001,14.521,4.82,14.412    c1.822-0.107,3.378-13.502,4.261-14.419c1.649-1.713,14.237-3.036,14.136-4.766C79.15,235.086,66.78,234.215,65.111,232.6z"/>
		<path style="fill:#7BEBE1;" d="M422.376,170.712c-0.996-0.968-3.001-14.514-4.818-14.41c-1.826,0.107-3.411,13.543-4.262,14.429    c-1.708,1.776-14.195,3.036-14.097,4.756c0.103,1.718,12.373,2.53,14.104,4.206c0.967,0.939,3,14.521,4.818,14.417    c1.822-0.109,3.378-13.507,4.261-14.424c1.649-1.71,14.237-3.036,14.137-4.763C436.416,173.196,424.045,172.325,422.376,170.712z"/>
	</g>
	<g>
		<path style="fill:#F96081;" d="M230.101,347.372c3.808,0.059,6.65-0.919,6.652-0.922c0.195-7.15,0.895-19.769,3.39-26.469    C240.143,319.981,233.866,331.189,230.101,347.372z"/>
	</g>
	<g>
		<path style="fill:#F96081;" d="M135.983,335.417c4.758-0.224,10.81-0.489,11.466-0.723c1.355-8.422,3.882-21.773,7.166-28.697    C154.615,305.997,144.02,314.378,135.983,335.417z"/>
	</g>
	<g>
		<g>
			<path style="fill:#074781;" d="M308.038,244.404c2.855,6.116,14.296-20.309,21.345-37.903c-6.16-3.603-12.013-7.59-17.812-11.687     C308.022,209.53,303.25,234.142,308.038,244.404z"/>
			<path style="fill:#074781;" d="M277.022,172.118c-8.539,26.712-16.245,69.994,4.587,108.624     c2.225,4.133,0.536-47.612,13.809-97.339C289.551,179.39,283.498,175.536,277.022,172.118z"/>
			<path style="fill:#074781;" d="M142.179,186.71c0.633,31.563,6.628,75.259,31.307,106.652     c2.917,3.712-13.439-64.438-9.942-119.871C156.09,177.283,148.934,181.72,142.179,186.71z"/>
			<path style="fill:#074781;" d="M124.613,268.649c1.857,2.362-4.103-24.418-7.775-58.494c-4.895,5.658-9.341,11.643-13.27,17.871     C108.297,242.467,115.049,256.485,124.613,268.649z"/>
			<path style="fill:#074781;" d="M186.803,164.136c-2.629,32.366-0.701,71.828,17.318,100.99c2.177,3.528-1.877-53.6,3.683-105.399     C200.708,160.584,193.684,162.073,186.803,164.136z"/>
			<path style="fill:#074781;" d="M226.65,158.869c-1.418,31.794-0.206,70.8,9.831,102.504c1.148,3.627,3.721-49.722,10.12-100.297     C240.432,159.825,233.816,159.054,226.65,158.869z"/>
		</g>
		<g>
			<path style="fill:#074781;" d="M239.121,270.435c0,0,0.138,0.241,0.309,0.654c0.179,0.416,0.385,1.007,0.562,1.705     c0.365,1.399,0.556,3.219,0.53,4.99c-0.016,0.448-0.006,0.883-0.046,1.321c-0.029,0.435-0.071,0.859-0.106,1.27     c-0.1,0.832-0.214,1.603-0.352,2.289c-0.078,0.348-0.148,0.667-0.212,0.946c-0.061,0.285-0.139,0.543-0.197,0.754     c-0.12,0.431-0.231,0.696-0.231,0.696s-0.196-0.187-0.469-0.547c-0.135-0.182-0.308-0.404-0.475-0.667     c-0.18-0.265-0.336-0.569-0.487-0.91c-0.32-0.681-0.606-1.501-0.77-2.394c-0.203-0.898-0.244-1.846-0.259-2.8     c0.022-0.474,0.04-0.944,0.092-1.404c0.037-0.469,0.125-0.915,0.212-1.35c0.172-0.869,0.426-1.662,0.697-2.338     c0.266-0.676,0.564-1.226,0.799-1.611C238.949,270.649,239.121,270.435,239.121,270.435z"/>
			<path style="fill:#074781;" d="M284.001,292.162c0,0,0.038,0.024,0.111,0.07c0.067,0.049,0.19,0.112,0.297,0.205     c0.242,0.165,0.516,0.469,0.83,0.735c0.309,0.273,0.562,0.535,0.835,0.919c0.133,0.185,0.238,0.365,0.347,0.577     c0.114,0.212,0.21,0.428,0.292,0.645c0.162,0.467,0.269,0.939,0.297,1.457c0.036,0.492-0.021,1-0.14,1.445     c-0.104,0.433-0.314,0.825-0.471,1.068c-0.07,0.124-0.165,0.221-0.213,0.289c-0.052,0.063-0.081,0.1-0.081,0.1     s-0.039-0.024-0.112-0.073c-0.068-0.049-0.195-0.114-0.302-0.202c-0.248-0.168-0.516-0.394-0.842-0.659     c-0.302-0.265-0.596-0.579-0.868-0.949c-0.125-0.18-0.254-0.375-0.361-0.589c-0.117-0.212-0.212-0.426-0.297-0.662     c-0.084-0.238-0.149-0.484-0.198-0.727c-0.056-0.241-0.079-0.516-0.09-0.764c-0.03-0.484,0.04-1.056,0.163-1.491     c0.124-0.443,0.349-0.752,0.507-1.005c0.071-0.119,0.169-0.221,0.217-0.285C283.973,292.199,284.001,292.162,284.001,292.162z"/>
			<path style="fill:#074781;" d="M307.128,253.12c0,0,0.033,0.037,0.096,0.105c0.059,0.066,0.17,0.165,0.26,0.294     c0.207,0.253,0.454,0.62,0.689,1.051c0.226,0.438,0.419,0.956,0.573,1.479c0.143,0.528,0.237,1.09,0.253,1.654     c0.013,0.282,0.024,0.557,0.007,0.834c-0.005,0.275-0.044,0.548-0.086,0.815c-0.106,0.538-0.226,1.039-0.379,1.486     c-0.166,0.448-0.358,0.842-0.522,1.129c-0.07,0.141-0.163,0.258-0.212,0.341c-0.051,0.078-0.078,0.122-0.078,0.122     s-0.04-0.029-0.113-0.085c-0.07-0.056-0.192-0.139-0.302-0.248c-0.243-0.221-0.545-0.545-0.843-0.963     c-0.296-0.416-0.575-0.927-0.735-1.484c-0.172-0.557-0.302-1.168-0.336-1.773c-0.017-0.603,0.04-1.209,0.157-1.776     c0.111-0.569,0.314-1.075,0.535-1.516c0.23-0.435,0.476-0.805,0.679-1.061c0.087-0.129,0.201-0.231,0.259-0.299     C307.093,253.157,307.128,253.12,307.128,253.12z"/>
			<path style="fill:#074781;" d="M207.701,270.98c0,0,0.032,0.034,0.089,0.095c0.054,0.056,0.157,0.151,0.236,0.26     c0.186,0.224,0.404,0.54,0.6,0.915c0.186,0.375,0.349,0.803,0.46,1.226c0.055,0.214,0.094,0.433,0.109,0.654     c0.028,0.214,0.013,0.448,0.027,0.662c0.004,0.212-0.007,0.423-0.043,0.635c-0.022,0.209-0.079,0.424-0.141,0.625     c-0.151,0.423-0.248,0.791-0.438,1.151c-0.185,0.353-0.391,0.676-0.567,0.912c-0.073,0.119-0.173,0.221-0.221,0.285     c-0.054,0.07-0.083,0.107-0.083,0.107s-0.037-0.022-0.11-0.066c-0.066-0.044-0.186-0.1-0.287-0.19     c-0.234-0.168-0.523-0.43-0.804-0.779c-0.264-0.346-0.568-0.786-0.682-1.258c-0.068-0.236-0.133-0.484-0.162-0.737     c-0.043-0.255-0.061-0.516-0.065-0.774c-0.011-0.263,0.044-0.501,0.089-0.744c0.046-0.246,0.114-0.484,0.198-0.71     c0.158-0.457,0.388-0.859,0.65-1.185c0.263-0.333,0.535-0.606,0.758-0.793c0.101-0.092,0.22-0.165,0.282-0.217     C207.666,271.009,207.701,270.98,207.701,270.98z"/>
			<path style="fill:#074781;" d="M125.421,273.24c0,0,0.043,0.029,0.122,0.085c0.073,0.054,0.207,0.127,0.325,0.236     c0.269,0.187,0.577,0.555,0.941,0.859c0.173,0.163,0.343,0.338,0.502,0.518c0.156,0.183,0.349,0.387,0.502,0.601     c0.16,0.207,0.303,0.435,0.458,0.659c0.152,0.226,0.293,0.46,0.413,0.708c0.134,0.236,0.262,0.479,0.362,0.73     c0.107,0.253,0.204,0.501,0.298,0.749c0.169,0.508,0.305,1.005,0.397,1.479c0.071,0.489,0.148,0.898,0.165,1.233     c0.022,0.156,0.011,0.311,0.016,0.401c0.003,0.102,0.005,0.153,0.005,0.153s-0.051-0.005-0.146-0.01     c-0.088-0.014-0.238-0.014-0.397-0.051c-0.325-0.061-0.804-0.173-1.269-0.414c-0.479-0.236-0.99-0.574-1.43-1.019     c-0.229-0.216-0.457-0.455-0.636-0.722c-0.196-0.265-0.377-0.543-0.54-0.83c-0.147-0.294-0.278-0.598-0.388-0.905     c-0.125-0.302-0.192-0.625-0.249-0.934c-0.056-0.316-0.1-0.606-0.105-0.915c-0.005-0.311,0.01-0.601,0.039-0.873     c0.022-0.27,0.088-0.506,0.162-0.708c0.057-0.205,0.142-0.389,0.207-0.543c0.056-0.148,0.14-0.277,0.18-0.36     C125.397,273.286,125.421,273.24,125.421,273.24z"/>
		</g>
	</g>
	<path style="fill:#074781;" d="M232.659,378.298c-2.494-0.91-5.584-1.803-6.684,0.917c-0.409,1.013,0.297,2.071,1.411,2.972   c2.108,1.704,4.988,2.105,7.552,1.227l3.347-1.145C237.261,380.332,232.659,378.298,232.659,378.298z"/>
	<path style="fill:#074781;" d="M231.101,387.571c-0.091-0.114-0.193-0.231-0.3-0.349c-1.038-1.147-2.323-2.039-3.713-2.719   c-2.175-1.063-4.65-1.799-6.226,0.37c-0.603,0.83-0.286,1.828,0.459,2.778c0.913,1.164,2.291,1.872,3.756,2.074l0,0   c0.864,0.119,1.74,0.044,2.574-0.211C229.234,389.031,231.595,388.186,231.101,387.571z"/>
	<path style="fill:#074781;" d="M344.828,391.401c-2.908-0.64-6.538-1.199-8.122,1.53c-0.654,1.129,0.341,2.179,1.845,2.976   c2.379,1.261,5.208,1.356,7.752,0.477l4.9-1.692C350.159,392.921,344.828,391.401,344.828,391.401z"/>
	<path style="fill:#074781;" d="M342.999,402.497c-0.346-0.377-0.831-0.789-1.264-1.131c-0.593-0.469-1.24-0.85-1.938-1.139   c-2.668-1.106-6.121-2.321-8.428,0.309c-0.744,0.847-0.464,1.795,0.307,2.672c0.988,1.124,2.448,1.721,3.942,1.807l0.67,0.039   c0.709,0.041,1.415-0.045,2.094-0.251C340.183,404.257,343.577,403.124,342.999,402.497z"/>
	<path style="fill:#074781;" d="M289.335,407.846c-2.991-0.625-6.724-1.168-8.375,1.606c-0.682,1.146,0.334,2.201,1.877,2.996   c2.446,1.262,5.335,1.341,7.936,0.44l5.104-1.767C294.813,409.34,289.335,407.846,289.335,407.846z"/>
	<path style="fill:#074781;" d="M288.238,418.157c-0.087-0.09-0.181-0.183-0.281-0.276c-1.2-1.116-2.654-1.916-4.196-2.471   c-2.838-1.022-6.231-1.787-8.623,0.827c-0.838,0.915-0.568,1.917,0.247,2.839c1.088,1.23,2.693,1.876,4.334,1.942l1.005,0.04   c0.711,0.029,1.418-0.06,2.099-0.266C284.818,420.187,288.898,418.843,288.238,418.157z"/>
	<path style="fill:#074781;" d="M176.993,384.543c-3.093-0.815-6.943-1.562-8.533,1.482c-0.656,1.257,0.427,2.475,2.04,3.423   c2.53,1.487,5.625,1.662,8.399,0.707l4.929-1.697C182.67,386.426,176.993,384.543,176.993,384.543z"/>
	<path style="fill:#074781;" d="M175.965,395.79c-0.09-0.107-0.187-0.217-0.29-0.328c-1.231-1.328-2.747-2.357-4.389-3.12   c-2.785-1.294-6.043-2.281-8.159,0.458c-0.754,0.974-0.429,2.12,0.42,3.21c1.127,1.446,2.856,2.297,4.679,2.499l0.249,0.028   c0.953,0.106,1.916,0.023,2.834-0.254C173.303,397.68,176.6,396.545,175.965,395.79z"/>
	<path style="fill:#074781;" d="M426.72,77.74c-0.454,0.117-0.982,0.29-1.578,0.508c-0.581,0.229-1.238,0.487-1.956,0.767   c-0.708,0.289-1.455,0.633-2.226,1.044c-0.768,0.421-1.593,0.783-2.4,1.326c-0.815,0.521-1.619,1.214-2.47,1.81   c-0.843,0.63-1.711,1.253-2.592,1.842c-0.892,0.518-1.786,1.034-2.669,1.547c-0.83,0.504-1.657,0.915-2.462,1.336   c3.483-0.068,6.795-0.029,9.937,0.109c0.596-0.27,1.176-0.584,1.736-0.917c0.893-0.567,1.757-1.127,2.511-1.849   c0.762-0.689,1.467-1.382,2.098-2.051c0.641-0.647,1.187-1.331,1.651-1.98c0.468-0.633,0.864-1.202,1.173-1.696   c0.624-0.978,0.929-1.615,0.929-1.615l-0.218-0.494C428.183,77.426,427.617,77.487,426.72,77.74z"/>
	<path style="fill:#074781;" d="M426.57,88.673c1.842,0.204,3.613,0.453,5.322,0.732c0.085-0.093,0.173-0.17,0.253-0.268   c0.398-0.462,0.772-0.944,1.118-1.425c0.343-0.467,0.654-0.944,0.927-1.409c0.27-0.455,0.505-0.878,0.696-1.248   c0.386-0.735,0.599-1.246,0.599-1.246l-0.005-0.545c0,0-0.22-0.122-0.595-0.173c-0.189-0.029-0.416-0.032-0.672-0.015   c-0.259,0.022-0.545,0.068-0.85,0.151c-0.308,0.078-0.636,0.204-0.987,0.389c-0.344,0.168-0.693,0.355-1.069,0.674   c-0.377,0.314-0.776,0.771-1.171,1.192c-0.398,0.428-0.811,0.864-1.222,1.26c-0.397,0.333-0.795,0.674-1.19,1.01   C427.318,88.106,426.944,88.388,426.57,88.673z"/>
	<path style="fill:#074781;" d="M131.161,436.726c-3.74,0.615-6.468,3.411-9.735,5.068c-0.364,0.199-0.742,0.345-1.119,0.489   c0.247,0.47,0.459,0.956,0.608,1.484c0.117,0.414,0.197,0.819,0.245,1.227c0.41-0.039,0.828-0.083,1.228-0.2   c4.454-0.714,9.594-3.239,10.306-8.11C132.695,436.684,131.792,436.58,131.161,436.726z"/>
	<path style="fill:#074781;" d="M130.024,446.445c-3.143-0.399-5.909,1.694-8.853,2.398c-0.223,0.054-0.445,0.117-0.661,0.17   c-0.226,0.516-0.51,1.022-0.837,1.518c0.164,0.014,0.315,0.029,0.489,0.044c3.543-0.043,8.363,0.407,10.521-3.007   c0.224-0.35,0.52-0.989,0.52-0.989S130.511,446.47,130.024,446.445z"/>
	<path style="fill:#074781;" d="M74.058,296.578c0,0.022,0.001,0.046,0.002,0.073c0.109,5.23,2.614,11.017,7.037,13.902   c0,0,0.079-0.879-0.014-1.743c-0.374-5.32-2.998-10.183-4.014-15.383c-0.201-0.795-0.258-1.591-0.356-2.37   c-0.665,1.603-1.389,3.18-2.209,4.722C74.361,296.045,74.204,296.305,74.058,296.578z"/>
	<path style="fill:#074781;" d="M68.412,306.121c0.51,2.186,1.18,5.016,3.862,5.121c0.38,0.044,0.944,0.004,0.944,0.004   s0.053-0.593,0.079-1.05c0.51-2.746-1.721-4.266-3.068-6.272c-0.124-0.2-0.257-0.404-0.372-0.596   c-0.516,0.745-1.046,1.477-1.585,2.204C68.307,305.734,68.351,305.932,68.412,306.121z"/>
	<path style="fill:#074781;" d="M323.936,350.96c0.254-0.187,0.45-0.435,0.657-0.725c0.204-0.287,0.416-0.564,0.647-0.82   c0.231-0.272,0.463-0.547,0.691-0.815c0.192-0.205,0.35-0.455,0.505-0.693c-0.025-0.46-0.05-0.915-0.078-1.389   c-0.026-0.435-0.046-0.878-0.072-1.316c-0.091,0.07-0.193,0.136-0.298,0.192c-0.2,0.124-0.413,0.255-0.642,0.394   c-0.206,0.134-0.503,0.275-0.76,0.416c-0.521,0.28-1.129,0.567-1.705,0.854c-0.311,0.136-0.645,0.253-0.977,0.355   c-0.326,0.1-0.671,0.224-0.933,0.399c-0.268,0.178-0.472,0.384-0.652,0.64c-0.185,0.246-0.332,0.499-0.446,0.752   c-0.114,0.251-0.191,0.516-0.249,0.761c-0.051,0.246-0.078,0.472-0.083,0.669c-0.013,0.392,0.044,0.657,0.044,0.657l0.317,0.275   c0,0,0.316,0.056,0.755,0.083c0.224,0.012,0.472,0.015,0.737,0.007c0.257-0.012,0.539-0.036,0.839-0.078   c0.292-0.041,0.586-0.11,0.871-0.204C323.386,351.286,323.689,351.148,323.936,350.96z"/>
	<path style="fill:#074781;" d="M324.593,356.821c0.359-0.092,0.759-0.207,1.191-0.331c0.344-0.112,0.72-0.234,1.095-0.362   c-0.052-0.959-0.106-1.951-0.161-2.988c-0.375,0.2-0.747,0.399-1.128,0.596c-0.788,0.421-1.954,0.832-2.546,1.214   c-0.584,0.38-0.754,0.735-0.822,1.046c-0.023,0.156,0.001,0.304,0.034,0.431c0.048,0.134,0.11,0.248,0.191,0.346   c0.152,0.19,0.342,0.306,0.342,0.306l0.592,0.017C323.382,357.096,323.888,356.999,324.593,356.821z"/>
	<path style="fill:#074781;" d="M168.675,355.515c0.984-0.084,2.056-0.122,2.985-0.251c0.287-0.037,0.574-0.059,0.82-0.112   c0.034-0.414,0.072-0.822,0.114-1.238c-0.037-0.007-0.072-0.015-0.111-0.022c-2.347-0.546-5.272-1.848-7.533-0.442   c0,0,0.29,0.546,0.443,0.77C166.099,355.229,167.433,355.736,168.675,355.515z"/>
	<path style="fill:#074781;" d="M172.328,358.804c-0.303-0.11-0.615-0.225-0.93-0.341c-2.519-0.92-3.819,0.178-3.819,0.178   s-0.05,0.613,0.44,1.102c0.99,1.045,2.824,0.502,4.131,0.521c0.072-0.01,0.136-0.017,0.206-0.024   C172.339,359.762,172.328,359.285,172.328,358.804z"/>
</g>















</svg>
