<?xml version="1.0" encoding="UTF-8"?>
<!-- Generator: Adobe Illustrator 25.4.1, SVG Export Plug-In . SVG Version: 6.00 Build 0)  -->
<svg xmlns="http://www.w3.org/2000/svg" xmlns:xlink="http://www.w3.org/1999/xlink" version="1.1" id="Capa_1" x="0px" y="0px" viewBox="0 0 512 512" style="enable-background:new 0 0 512 512;" xml:space="preserve" width="512" height="512">
<g>
	<g>
		<g>
			<path style="fill:#F96081;" d="M261.128,354.422c1.438-0.904,2.995-1.576,4.64-1.962c2.896-0.667,6.336-0.341,9.227,0.01     c1.631-13.037,7.225-26.85,21.35-29.485c13.037-2.427,24.261-0.776,36.676,6.484c2.773-8.387,5.688-16.867,12.884-22.551     c6.8-5.362,15.647-7.018,24.113-6.074c4.339,0.484,9.563,1.28,13.576,3.059c4.799,2.13,8.901,5.125,12.271,9.158     c0.687,0.82,7.957,11.357,6.193,12.148l2.016-0.904c16.344-12.158,38.089-0.351,43.313,16.19     c1.764,5.016,3.138,7.547,3.138,7.547s9.849,0.919,13.734,2.57c6.781,3.252,12.924,9.944,13.596,17.386     c1.601,20.342-16.566,28.961-33.646,23.781c-6.336-2.249-8.945-2.787-8.95-2.787c-7.991,2.812-14.836,7.285-23.347,8.688     c-14.915,2.451-30.483-1.878-42.833-10.359c-1.606-1.107-6.049-4.942-6.049-4.942s-9.281,11.263-15.138,14.831     c-13.383,8.154-37.956,6.533-47.79-7.379c-2.555-3.623-3.578-5.362-3.578-5.362c-0.138-0.237-9.326,2.832-10.151,3.054     c-10.616,2.832-25.625,2.98-32.391-7.646C248.753,371.67,253.072,359.478,261.128,354.422z"/>
		</g>
		<path style="fill:#FFA0A8;" d="M314.74,357.565c-5.901,0-5.901,9.148,0,9.148C320.641,366.713,320.641,357.565,314.74,357.565z"/>
		<path style="fill:#FFA0A8;" d="M333.357,378.633c-5.901,0-5.901,9.153,0,9.153C339.258,387.786,339.258,378.633,333.357,378.633z"/>
		<path style="fill:#FFA0A8;" d="M358.438,357.565c-5.906,0-5.906,9.148,0,9.148C364.339,366.713,364.339,357.565,358.438,357.565z"/>
		<path style="fill:#FFA0A8;" d="M395.138,380.195c-5.926,0-5.926,9.148,0,9.148C401.064,389.343,401.064,380.195,395.138,380.195z"/>
		<path style="fill:#FFA0A8;" d="M416.795,356.186c-5.921,0-5.921,9.153,0,9.153C422.72,365.339,422.72,356.186,416.795,356.186z"/>
		<path style="fill:#FFA0A8;" d="M380.174,343.708c-5.921,0-5.921,9.153,0,9.153C386.099,352.86,386.099,343.708,380.174,343.708z"/>
		<path style="fill:#FFA0A8;" d="M452.744,369.11c-5.926,0-5.926,9.153,0,9.153C458.669,378.263,458.669,369.11,452.744,369.11z"/>
		<path style="fill:#FFA0A8;" d="M429.115,331.268c-5.926,0-5.926,9.148,0,9.148C435.036,340.416,435.036,331.268,429.115,331.268z"/>
	</g>
	<g>
		<path style="fill:#7BEBE1;" d="M212.275,349.114c-4.117,18.301-8.693,37.521-8.693,56.74c0,8.693-0.455,22.422,6.865,29.287    c6.405,5.486,19.22,6.4,26.999,6.86c15.558,0.919,37.066,3.207,44.385-13.724c8.239-18.765-15.548-24.414-29.287-25.314    c-30.201-1.977-14.179-49.456-11.436-67.124"/>
	</g>
	<path style="fill:#29AAF9;" d="M209.492,361.558c-0.499,2.303-0.988,4.616-1.463,6.944c10.339-2.095,19.739-3.415,27.537-4.25   c0.306-2.076,0.657-4.137,1.033-6.163C226.459,357.471,217.257,359.107,209.492,361.558z"/>
	<g>
		<path style="fill:#29AAF9;" d="M455.195,108.314c0,0,7.962,6.405,9.657,6.099c1.69-0.306,1.863-10.675,1.863-10.675"/>
		<path style="fill:#29AAF9;" d="M465.643,104.795c0,0,7.957,6.41,9.652,6.108c1.695-0.306,1.863-10.68,1.863-10.68"/>
		<path style="fill:#29AAF9;" d="M476.511,99.458c0,0,7.957,6.405,9.652,6.099c1.695-0.302,1.863-10.675,1.863-10.675"/>
		<path style="fill:#29AAF9;" d="M486.657,91.758c0,0,8.199,8.876,9.943,8.451c1.745-0.42,1.918-14.792,1.918-14.792"/>
	</g>
	<g>
		<path style="fill-rule:evenodd;clip-rule:evenodd;fill:#ED814F;" d="M135.044,126.15c0,20.762-16.833,37.595-37.595,37.595    c-20.772,0-37.605-16.833-37.605-37.595c0-20.767,16.833-37.6,37.605-37.6C118.211,88.55,135.044,105.383,135.044,126.15z"/>
		<path style="fill:#F5D155;" d="M112.37,97.441c-8.937,1.472-19.792,6.51-27.266,12.42c0.03-0.02,0.059-0.044,0.089-0.069    c-8.855,7.236-11.696,21.385-14.832,31.298C61.738,115.209,85.365,87.443,112.37,97.441z"/>
	</g>
	<g>
		<g>
			<path style="fill:#29AAF9;" d="M126.094,313.269c0-18.306-23.673-35.628-30.537-52.105c-2.288-5.946-0.702-10.947,4.789-15.069     c6.865-4.576,21.325-5.431,25.902-13.67c5.491-10.072-8.234-28.486-5.95-39.468c1.834-9.153,13.729-3.089,21.053-4.458     c11.436-1.833,11.278-6.405,10.982-16.017c-0.46-14.871-6.405-38.44,9.153-35.806c6.38,1.072,18.76,8.807,25.625,8.807     c8.234-0.46,13.269-12.815,17.846-19.22c3.203-4.576,8.693-15.558,14.643-17.846c6.865-2.288,13.27,5.95,18.306,9.608     c7.319,5.95,9.262,12.128,17.386,4.122c4.433-4.369,12.355-11.901,18.301-12.36c16.017-2.283,12.815,47.365,29.747,39.587     c8.234-3.662,16.358-14.757,23.337-9.38c3.247,2.501,5.491,25.739,14.643,25.279l-62.182,74.132L126.094,313.269z"/>
		</g>
		<g>
			<path style="fill-rule:evenodd;clip-rule:evenodd;fill:#074781;" d="M196.524,212.276c-5.342-16.818-11.041-34.362-19.235-49.851     c-1.497-2.832-7.774-12.548-10.359-7.754c-2.362,4.393,2.59,13.374,4.369,17.604c5.263,12.518,11.767,24.795,18.75,36.25     C191.968,211.664,200.003,223.164,196.524,212.276z"/>
			<path style="fill-rule:evenodd;clip-rule:evenodd;fill:#074781;" d="M179.632,245.127     c-10.749-13.991-22.081-28.556-35.054-40.328c-2.372-2.15-11.584-9.153-12.38-3.761c-0.726,4.932,6.988,11.688,10.102,15.064     c9.207,9.973,19.497,19.309,29.969,27.7C175.135,246.1,186.61,254.186,179.632,245.127z"/>
			<path style="fill-rule:evenodd;clip-rule:evenodd;fill:#074781;" d="M168.745,283.661c-14.668-9.8-30.068-19.961-46.13-26.949     c-2.941-1.28-13.907-4.957-12.933,0.405c0.89,4.908,10.364,8.827,14.396,11.026c11.921,6.499,24.661,12.034,37.269,16.63     C164.801,286.033,178.263,290.001,168.745,283.661z"/>
			<path style="fill-rule:evenodd;clip-rule:evenodd;fill:#074781;" d="M227.679,207.744c1.097-20.183,2.145-41.296,0.104-61.119     c-0.376-3.622-2.713-16.497-6.869-12.291c-3.801,3.85-2.427,15.42-2.303,20.668c0.381,15.508,2.002,31.224,4.374,46.244     C223.637,205.362,226.973,220.826,227.679,207.744z"/>
			<path style="fill-rule:evenodd;clip-rule:evenodd;fill:#074781;" d="M256.275,207.972c5.851-19.63,11.861-40.185,14.569-60.18     c0.494-3.662,1.265-16.878-3.776-13.695c-4.611,2.916-6.014,14.629-7.131,19.823c-3.301,15.365-5.446,31.225-6.692,46.565     C252.904,204.69,252.494,220.693,256.275,207.972z"/>
			<path style="fill-rule:evenodd;clip-rule:evenodd;fill:#074781;" d="M285.774,213.739c9.069-13.156,18.459-26.974,24.785-41.633     c1.161-2.683,4.428-12.765-0.707-12.217c-4.7,0.509-8.238,9.168-10.255,12.815c-5.955,10.788-10.972,22.412-15.078,33.982     C283.392,209.86,279.903,222.27,285.774,213.739z"/>
		</g>
	</g>
	<g>
		<path style="fill:#7BEBE1;" d="M355.503,265.375c6.405,0,11.896,0.455,17.386-2.288c6.865-3.667,9.153-10.067,14.189-15.103    c4.576-4.122,12.356-8.693,17.386-3.662c2.97,2.97,2.175,6.39,0.845,9.929c-1.833,4.863-1.107,6.277,3.662,5.501    c6-0.974,3.973,4.868,1.532,8.52c-3.035,4.542-8.006,7.502-12.474,10.433c-3.059,2.002-6.178,3.647-9.578,4.972    c-15.563,6.865-35.692,8.693-49.421-2.283"/>
	</g>
	<g>
		<path style="fill:#7BEBE1;" d="M257.579,312.963c-12.815,29.282-11.901,67.722-10.986,99.757    c0.46,19.22,3.208,40.96,24.256,45.991c13.729,3.662,48.912,3.425,59.434-7.557c14.189-14.184-10.215-24.725-21.913-25.625    c-41.643-3.202-3.202-73.213,3.662-101.585"/>
	</g>
	<g>
		<g>
			<path style="fill:#7BEBE1;" d="M485.915,113.449c-11.436,0-33.859,5.036-49.876,5.036c12.449-5.837,37.521-12.355,48.962-20.134     C495.068,91.946,512,76.383,512,63.113c-0.346-13.808-15.815-12.246-25.141-11.446c-17.604,1.522-34.886,5.777-52.194,9.158     c-39.201,7.66-74.394,38.4-87.258,76.479l-0.138-0.059c-3.662,7.319-7.418,18.488-12.296,25.808     c-23.796,37.827-49.021,38.257-96.92,38.257c-37.847,0-79.924,18.305-94.567,56.133     c-13.423,34.778-36.606,132.785-92.739,110.209c-19.526-7.932-27.453-38.217-26.846-57.131     c0.613-11.589,8.313-68.715-12.815-39.656l-0.553,1.068c-15.864,31.723-12.257,70.924,0.553,102.653     c15.256,38.44,72.991,53.078,107.768,33.557c37.219-21.355,58.796-45.151,103.335-47.593     c37.801-2.253,67.253-9.403,96.076-32.657c2.348-1.895-0.194-8.974,2.15-11.089c0,0,5.716,4.143,7.096,2.534     c2.325-2.712,6.213-7.34,10.329-12.638l0,0c24.987-22.571,38.257-69.472,44.202-90.975c6.865-23.342-2.515-53.998,24.483-62.236     c25.165-7.324,63.837,4.349,85.8-11.668c7.319-5.031,9.148-10.522,8.234-18.76C499.645,112.535,495.068,113.449,485.915,113.449z     "/>
		</g>
	</g>
	<g>
		<path style="fill:#FFA0A8;" d="M114.109,256.38"/>
	</g>
	<path style="fill:#074781;" d="M431.305,88.392c0,3.706-2.97,6.711-6.632,6.711c-3.667,0-6.637-3.005-6.637-6.711   c0-3.707,2.97-6.712,6.637-6.712C428.335,81.681,431.305,84.686,431.305,88.392z"/>
	<path style="fill:#FFFFFF;" d="M440.853,75.33c10.406-12.08,29.187-14.88,44.158-14.184   C471.577,67.895,454.934,69.935,440.853,75.33z"/>
	<path style="fill:#FFFFFF;" d="M11.936,309.478c-0.19,26.597,4.532,55.592,21.661,76.875   C10.134,370.061,3.803,335.553,11.936,309.478z"/>
	<g>
		<path style="fill:#29AAF9;" d="M293.42,226.085c-4.428-3.84-11.757-3.964-17.05-2.323c-4.463,1.379-14.179,9.44-5.402,13.023    c6.81,2.782,15.632,0.445,21.528-3.509C294.784,231.734,295.772,228.131,293.42,226.085z"/>
		<path style="fill:#29AAF9;" d="M253.828,211.066c-3.385,0.035-6.874,0.978-10.171,2.318c-0.292,0.05-0.593,0.124-0.909,0.237    c-5.338,1.962-14.031,4.942-14.693,11.589c-0.356,3.588,2.703,6.484,5.975,7.211c4.023,0.894,8.372-0.672,12.064-2.14    c5.753-2.288,15.716-5.763,16.023-13.161C262.304,212.632,257.416,211.036,253.828,211.066z"/>
		<path style="fill:#29AAF9;" d="M201.15,224.256c-3.148-0.351-6.262,0.558-9.207,2.002c-0.054,0.015-0.104,0.03-0.158,0.045    c-5.105,1.883-10.176,3.84-14.238,7.571c-3.03,2.787-4.922,8.105-2.609,11.841c3.889,6.272,14.876,2.016,19.917-0.519    c5.086-2.57,15.36-7.107,15.504-13.868C210.471,226.134,205.341,224.726,201.15,224.256z"/>
		<path style="fill:#29AAF9;" d="M236.15,244.529c-5.733-2.599-16.008-0.311-21.029,3.109c-4.996,3.405-3.43,9.756,1.73,12.177    c5.214,2.446,12.138,1.27,17.129-1.157C239.18,256.133,242.98,247.632,236.15,244.529z"/>
		<path style="fill:#29AAF9;" d="M202.919,267.944c-2.431-2.787-7.003-2.703-10.102-1.403c-1.913,0.805-3.613,1.912-5.244,3.128    c-4.483,2.629-9.291,7.438-7.823,12.716c2.204,7.907,12.078,4.28,16.665,1.275C201.417,280.394,208.084,273.87,202.919,267.944z"/>
		<path style="fill:#29AAF9;" d="M333.149,205.753c-1.393-5.585-8.441-4.166-12.227-2.758c-5.234,1.942-9.924,5.441-10.606,11.382    c-0.237,2.066,1.587,3.81,3.361,4.408c3.445,1.161,7.527,1.161,10.976,0c2.723-0.914,4.799-3.168,6.45-5.426    C332.705,211.165,333.836,208.501,333.149,205.753z"/>
		<path style="fill:#29AAF9;" d="M354.998,165.109c-3.622-11.367-24.735,9.178-12.731,15.721    C350.185,185.139,356.99,171.37,354.998,165.109z"/>
		<path style="fill:#29AAF9;" d="M374.456,127.173c-0.786-1.828-2.624-2.896-4.557-3.015c-2.535-0.153-3.573,1.349-5.431,2.718    c-3.613,2.664-7.225,7.127-5.496,12.014c1.053,2.975,3.633,4.349,6.697,3.86c2.071-0.331,3.889-2.056,5.234-3.539    c1.216-1.344,2.352-2.792,3.188-4.403c0.474-0.914,0.929-1.918,1.073-2.946C375.405,130.059,375.182,128.838,374.456,127.173z"/>
		<path style="fill:#29AAF9;" d="M394.961,94.184c-0.588-2.14-2.358-3.118-4.413-3.361c-2.515-0.291-4.695,0.984-7.013,1.69    c-2.382,0.721-3.87,3.173-3.198,5.629c0.425,1.527,1.665,2.718,3.138,3.168c1.058,0.657,2.382,0.875,3.717,0.633    c2.491-0.445,4.749-1.557,6.593-3.306C394.961,97.515,395.385,95.726,394.961,94.184z"/>
		<path style="fill:#29AAF9;" d="M160.812,280.092c-0.998-2.11-4.359-3.005-6.262-1.641c-12.637,9.084-16.497,23.49-16.606,38.425    c-0.01,1.503,0.578,2.619,1.458,3.361c0.366,0.726,1.023,1.364,2.031,1.809c9.034,3.998,13.561-9.009,15.849-15.301    c1.744-4.799,3.049-9.79,3.924-14.821C161.88,288.044,162.552,283.779,160.812,280.092z"/>
		<path style="fill:#29AAF9;" d="M126.657,343.786c-0.732-1.265-2.417-2.456-3.954-2.273c-5.689,0.692-9.791,5.066-12.874,9.593    c-2.204,3.232,1.236,7.191,4.25,7.991C121.611,361.079,130.71,350.809,126.657,343.786z"/>
	</g>
	<path style="fill:#29AAF9;" d="M372.627,246.328c0,0-7.552,20.456-24.483,45.122l2.748,1.784   C350.892,293.233,368.965,275.842,372.627,246.328z"/>
	<path style="fill:#29AAF9;" d="M325.874,264.48c0,0,13.947,12.859,16.932,19.294c5.337,11.515,13.783,21.884,13.783,21.884   s-4.176-14.866-10.428-23.865C339.91,272.793,328.469,263.872,325.874,264.48L325.874,264.48z"/>
	<path style="fill:#29AAF9;" d="M308.73,300.592c5.303,11.184,7.299,18.978,9.523,27.3c2.352-1.898,4.7-3.89,7.048-6.01   c0,0,0.83-0.934,2.209-2.545C319.633,308.035,308.73,300.592,308.73,300.592z"/>
	<g>
		<path style="fill:#F5D155;" d="M71.894,261.801c-0.855-0.825-2.58-12.464-4.141-12.37c-1.567,0.089-2.931,11.634-3.662,12.395    c-1.468,1.527-12.197,2.609-12.108,4.082c0.084,1.477,10.626,2.174,12.113,3.617c0.83,0.806,2.58,12.479,4.141,12.385    c1.567-0.094,2.901-11.604,3.667-12.395c1.413-1.468,12.227-2.609,12.143-4.092C83.957,263.941,73.327,263.195,71.894,261.801z"/>
		<path style="fill:#F5D155;" d="M464.175,265.543c-0.86-0.83-2.58-12.469-4.141-12.38c-1.572,0.094-2.931,11.639-3.662,12.4    c-1.468,1.527-12.197,2.61-12.113,4.087c0.089,1.478,10.631,2.17,12.118,3.613c0.83,0.806,2.58,12.474,4.141,12.39    c1.567-0.099,2.901-11.609,3.662-12.4c1.413-1.468,12.232-2.604,12.143-4.087C476.239,267.678,465.608,266.932,464.175,265.543z"/>
		<path style="fill:#ED814F;" d="M38.87,215.089c-1.013-0.984-3.049-14.742-4.893-14.634c-1.853,0.114-3.464,13.759-4.329,14.658    c-1.735,1.804-14.421,3.079-14.317,4.828c0.104,1.745,12.563,2.57,14.322,4.275c0.984,0.949,3.049,14.747,4.898,14.639    c1.848-0.109,3.43-13.715,4.329-14.649c1.675-1.74,14.461-3.084,14.357-4.838C53.133,217.614,40.565,216.734,38.87,215.089z"/>
		<path style="fill:#ED814F;" d="M435.896,215.089c-1.013-0.984-3.049-14.742-4.893-14.634c-1.858,0.114-3.469,13.759-4.329,14.658    c-1.735,1.804-14.421,3.079-14.322,4.828c0.109,1.745,12.568,2.57,14.327,4.275c0.984,0.949,3.045,14.747,4.893,14.639    c1.853-0.109,3.435-13.715,4.329-14.649c1.675-1.74,14.461-3.084,14.357-4.838C450.159,217.614,437.591,216.734,435.896,215.089z"/>
	</g>
	<path style="fill:#074781;" d="M333.703,435.191c-3.42-1.151-7.66-2.263-9.232,1.359c-0.585,1.348,0.364,2.731,1.879,3.899   c2.879,2.22,6.74,2.706,10.179,1.526l4.834-1.659C339.994,437.781,333.703,435.191,333.703,435.191z"/>
	<path style="fill:#074781;" d="M333.574,448.411c-0.096-0.124-0.201-0.251-0.311-0.38c-1.314-1.539-2.94-2.782-4.726-3.734   c-2.878-1.534-6.189-2.702-8.219,0.244c-0.836,1.216-0.228,2.729,0.968,4.14c1.142,1.348,2.768,2.197,4.513,2.477l0,0   c1.147,0.184,2.318,0.108,3.43-0.23C331.257,450.313,334.22,449.242,333.574,448.411z"/>
	<path style="fill:#074781;" d="M409.476,152.739c-0.509-0.143-1.043-0.296-1.616-0.46c-0.613-0.193-1.265-0.435-1.927-0.662   c-0.667-0.227-1.349-0.47-2.026-0.766c-0.677-0.272-1.364-0.558-2.056-0.84c-0.667-0.331-1.309-0.697-1.937-1.062   c-0.316-0.178-0.628-0.356-0.934-0.534c-0.297-0.193-0.598-0.366-0.894-0.519c-0.603-0.297-1.231-0.504-1.824-0.692   c-0.573-0.232-1.137-0.42-1.68-0.563c-0.549-0.148-1.077-0.252-1.512-0.395c-0.45-0.123-0.865-0.227-1.225-0.296   c-0.722-0.138-1.201-0.178-1.201-0.178l-0.306,0.346c0,0,0.128,0.435,0.474,1.112c0.173,0.346,0.41,0.746,0.702,1.191   c0.277,0.474,0.667,0.894,1.117,1.335c0.45,0.45,0.959,0.909,1.522,1.359c0.573,0.43,1.225,0.781,1.922,1.112   c0.702,0.326,1.463,0.564,2.259,0.707c0.796,0.168,1.587,0.351,2.367,0.554c0.791,0.153,1.576,0.301,2.357,0.455   c0.499,0.109,0.998,0.173,1.492,0.222c0.638-0.237,1.295-0.464,1.977-0.672C407.489,153.213,408.472,152.966,409.476,152.739z"/>
	<path style="fill:#074781;" d="M396.671,158.21c-0.218-0.129-0.445-0.262-0.682-0.405c-0.465-0.277-0.959-0.598-1.438-0.9   c-0.242-0.173-0.46-0.366-0.672-0.558c-0.202-0.193-0.415-0.39-0.662-0.509c-0.499-0.232-1.122-0.277-1.69-0.272   c-0.292,0.005-0.578,0.04-0.835,0.069c-0.267,0.039-0.509,0.089-0.722,0.143c-0.415,0.109-0.697,0.222-0.697,0.222l-0.237,0.316   c0,0,0,0.247,0.074,0.588c0.035,0.173,0.094,0.366,0.173,0.573c0.079,0.193,0.183,0.41,0.316,0.618   c0.277,0.405,0.648,0.83,1.231,1.077c0.286,0.119,0.628,0.178,0.998,0.213c0.371,0.039,0.732,0.084,1.082,0.158   c0.356,0.059,0.712,0.119,1.068,0.178c0.341,0.064,0.712,0.084,1.058,0.109c0.089,0.005,0.168,0.01,0.252,0.015   c0.524-0.509,1.082-1.003,1.67-1.477C396.863,158.313,396.769,158.269,396.671,158.21z"/>
	<path style="fill:#074781;" d="M40.116,360.17c-0.02,0.129-0.045,0.262-0.069,0.4c-1.332,6.032,0.15,16.661,8.508,15.546   c0,0-0.438-0.902-0.774-1.446c-1.937-3.503-4.833-6.652-5.456-10.764c-0.134-0.667-0.262-1.31-0.376-1.927   C41.322,361.4,40.709,360.792,40.116,360.17z"/>
	<path style="fill:#074781;" d="M46.293,365.329c0.045,0.395,0.099,0.805,0.213,1.216c0.448,3.587,3.884,7.644,7.805,5.754   c0,0-0.381-0.693-0.604-1.128c-0.39-0.763-0.783-1.638-1.226-2.407c-0.129-0.207-0.267-0.425-0.43-0.623   c-0.435-0.163-0.865-0.316-1.305-0.489C49.185,367.019,47.707,366.229,46.293,365.329z"/>
	<path style="fill:#074781;" d="M283.343,389.669c2.276,0.791,5.151,0.357,6.944-1.384c0.316-0.282,0.642-0.549,0.964-0.815   c0.326-1.503,0.692-3.02,1.082-4.557c-0.86,0.341-1.71,0.721-2.575,1.087c-2.636,0.706-5.038,1.964-6.781,4.067   c-0.385,0.44-0.972,1.056-0.972,1.056S282.774,389.481,283.343,389.669z"/>
	<path style="fill:#074781;" d="M285.107,397.537c1.34,0.485,3.159,0.462,4.235-0.633c0.114-0.114,0.237-0.213,0.356-0.321   c0.118-1.028,0.257-2.066,0.425-3.123c-0.049,0.02-0.094,0.039-0.143,0.064c-1.983,0.948-4.66,1.125-5.56,3.454   C284.42,396.979,284.741,397.404,285.107,397.537z"/>
	<g>
		<path style="fill:#7BEBE1;" d="M341.319,282.168c6.865,6.405,10.067,20.273,17.846,25.758c5.491,4.117,13.27,4.576,19.675,4.117    c19.679-1.369,16.017-22.877,31.121-28.368c4.572-1.828,8.234-0.914,10.982,3.662c1.369,2.288,0,7.324,1.369,9.148    c2.481,3.311,6.504,1.003,9.82,2.55c5.535,2.59,4.626,6.405,1.068,9.37c-4.477,3.736-8.545,4.932-13.561,7.532    c-4.779,2.481-9.425,5.204-14.08,7.903c-9.41,5.461-18.909,11.006-29.257,14.515c-5.822,1.972-11.896,3.262-18.049,3.435    c-23.796,0.455-30.661-27.453-45.759-39.809"/>
	</g>
	<path style="fill:#29AAF9;" d="M301.811,305.658c0,0,8.673,24.617-1.384,51.907C300.427,357.565,317.774,331.283,301.811,305.658z"/>
	<path style="fill:#FFFFFF;" d="M285.043,357.956c10.696-13.185,4.2-33.243,7.077-48.477   C298.269,324.093,301.97,348.967,285.043,357.956z"/>
	<path style="fill:#29AAF9;" d="M236.6,322.792c0,0,7.621,10.161,9.524,36.552c0.697,9.657-0.292,22.615,0.039,34.116   c0.573,19.927,2.165,37.12,2.165,37.12l2.016-73.015C250.344,357.565,249.578,335.35,236.6,322.792z"/>
	<path style="fill:#074781;" d="M432.837,294.459c-0.174,0.049-0.358,0.105-0.544,0.168c-1.71,0.569-3.297,1.462-4.709,2.582   c-2.03,1.61-3.749,3.576-1.977,5.667c0.885,1.053,2.697,0.825,4.502,0.11c1.075-0.426,1.971-1.207,2.603-2.176l0,0   c0.554-0.85,0.881-1.827,0.932-2.841C433.725,296.382,433.684,294.225,432.837,294.459z"/>
	<path style="fill:#074781;" d="M423.106,283.186c-0.165-0.036-0.342-0.067-0.525-0.095c-1.778-0.269-3.591-0.099-5.336,0.335   c-2.876,0.715-5.873,1.969-6.01,5.325c-0.049,1.254,0.893,1.951,2.222,2.27c1.697,0.406,3.489,0.003,4.974-0.915l0.368-0.227   c0.756-0.467,1.413-1.069,1.939-1.785C421.975,286.414,424.053,283.385,423.106,283.186z"/>
	<path style="fill:#074781;" d="M409.055,242.488c-0.164-0.036-0.341-0.068-0.524-0.096c-1.789-0.276-3.614-0.121-5.374,0.304   c-2.871,0.694-5.854,1.931-6.013,5.272c-0.061,1.251,0.876,1.956,2.205,2.286c1.698,0.421,3.497,0.031,4.991-0.88l0.366-0.223   c0.757-0.461,1.417-1.058,1.948-1.769C407.903,245.713,410.002,242.698,409.055,242.488z"/>
	<path style="fill:#074781;" d="M414.477,254.749c-0.141,0.017-0.29,0.041-0.444,0.07c-1.498,0.282-2.902,0.922-4.179,1.755   c-2.095,1.367-4.13,3.203-3.305,5.914c0.308,1.015,1.254,1.31,2.405,1.194c1.468-0.148,2.787-0.968,3.718-2.113l0.227-0.279   c0.475-0.585,0.832-1.248,1.055-1.968C414.476,257.636,415.291,254.646,414.477,254.749z"/>
</g>















</svg>
